<svg width="52" height="46" viewBox="0 0 52 46" fill="none" xmlns="http://www.w3.org/2000/svg">
<path fill-rule="evenodd" clip-rule="evenodd" d="M52 0H6.5L0 46H45.5L52 0ZM12.1079 11.472L8.93987 34H14.1559L17.3239 11.472H12.1079ZM21.4389 31.504C23.3589 33.4027 25.7695 34.352 28.6709 34.352C32.1909 34.352 35.2949 33.0187 37.9829 30.352C40.6709 27.664 42.0149 24.5707 42.0149 21.072C42.0149 18.256 41.0549 15.8987 39.1349 14C37.2362 12.1013 34.8362 11.152 31.9349 11.152C29.6309 11.152 27.4442 11.7707 25.3749 13.008C23.3269 14.224 21.6842 15.856 20.4469 17.904C19.2095 19.952 18.5909 22.1067 18.5909 24.368C18.5909 27.2053 19.5402 29.584 21.4389 31.504ZM34.3669 26.928C32.9589 28.4 31.3055 29.136 29.4069 29.136C27.8709 29.136 26.6015 28.6133 25.5989 27.568C24.6175 26.5227 24.1269 25.2213 24.1269 23.664C24.1269 21.7227 24.8522 20.016 26.3029 18.544C27.7535 17.072 29.3962 16.336 31.2309 16.336C32.7669 16.336 34.0255 16.8587 35.0069 17.904C36.0095 18.928 36.5109 20.2187 36.5109 21.776C36.5109 23.7173 35.7962 25.4347 34.3669 26.928Z" fill="#C3F302"/>
</svg>
