<svg width="31" height="28" viewBox="0 0 31 28" fill="none" xmlns="http://www.w3.org/2000/svg">
<path fill-rule="evenodd" clip-rule="evenodd" d="M2.85913 0H30.8591L28.8591 28H0.859131L2.85913 0ZM5.94275 13.9099C5.9421 15.6566 6.40054 17.3617 7.27189 18.8646L5.85913 24L11.1381 22.622C12.5926 23.4116 14.2302 23.8278 15.8967 23.8284H15.901C21.3892 23.8284 25.8568 19.382 25.8591 13.918C25.8601 11.2697 24.8252 8.77971 22.9452 6.90646C21.0649 5.03327 18.5647 4.00121 15.901 4C10.4119 4 5.94493 8.44567 5.94271 13.9099H5.94275ZM9.08644 18.6059L8.88938 18.2943C8.06081 16.9827 7.6234 15.467 7.62412 13.9106C7.62587 9.36886 11.3386 5.67394 15.9042 5.67394C18.115 5.67483 20.1929 6.53274 21.7558 8.08967C23.3185 9.6465 24.1784 11.7162 24.1778 13.9173C24.1758 18.4592 20.4629 22.1547 15.901 22.1547H15.8978C14.4124 22.1539 12.9556 21.7568 11.6851 21.0062L11.3827 20.8278L8.25007 21.6455L9.08644 18.6059ZM13.3025 9.46019C13.4778 9.46723 13.6718 9.47532 13.8561 9.8769C13.9821 10.1516 14.1943 10.6638 14.3632 11.0718C14.4875 11.3721 14.5885 11.6159 14.6146 11.6671C14.6761 11.7876 14.7171 11.9285 14.6351 12.0895C14.6228 12.1136 14.6115 12.1363 14.6006 12.158C14.539 12.2813 14.4937 12.3719 14.3893 12.4917C14.3485 12.5384 14.3063 12.5886 14.2642 12.6389C14.1791 12.7403 14.094 12.8418 14.0202 12.914C13.8968 13.0342 13.7686 13.1649 13.9121 13.4061C14.0557 13.6476 14.5495 14.437 15.2809 15.0762C16.0666 15.7629 16.7492 16.0534 17.0958 16.2009C17.1639 16.2298 17.219 16.2533 17.2594 16.2731C17.5055 16.3937 17.649 16.3736 17.7925 16.2125C17.9361 16.0516 18.4073 15.5086 18.5714 15.2674C18.7354 15.0259 18.8995 15.0661 19.125 15.1465C19.3506 15.2269 20.5602 15.8104 20.8062 15.931C20.8543 15.9546 20.8992 15.9758 20.9408 15.9955C21.1124 16.0767 21.2283 16.1316 21.2779 16.2125C21.3394 16.3134 21.3394 16.796 21.1343 17.3591C20.9293 17.9222 19.9247 18.4653 19.4736 18.5055C19.4302 18.5094 19.3871 18.5144 19.3427 18.5195C18.9258 18.5675 18.3996 18.6282 16.5212 17.9021C14.2097 17.0086 12.6857 14.7942 12.3711 14.3371C12.3453 14.2997 12.3276 14.274 12.3183 14.2618L12.3156 14.2583C12.183 14.0846 11.3137 12.9459 11.3137 11.7676C11.3137 10.6569 11.8706 10.0747 12.1269 9.80688C12.1444 9.78857 12.1605 9.77173 12.1749 9.75629C12.4003 9.51496 12.6669 9.45456 12.8309 9.45456L12.8587 9.45456C13.0133 9.45454 13.1671 9.45452 13.3025 9.46019Z" fill="white"/>
</svg>
